<?xml version="1.0" standalone="no"?>
<!DOCTYPE svg PUBLIC "-//W3C//DTD SVG 20010904//EN"
 "http://www.w3.org/TR/2001/REC-SVG-20010904/DTD/svg10.dtd">
<svg version="1.0" xmlns="http://www.w3.org/2000/svg"
 width="300.000000pt" height="277.000000pt" viewBox="0 0 300.000000 277.000000"
 preserveAspectRatio="xMidYMid meet">
<metadata>
Created by potrace 1.10, written by Peter Selinger 2001-2011
</metadata>
<g transform="translate(0.000000,277.000000) scale(0.100000,-0.100000)"
fill="#000000" stroke="none">
<path d="M1545 2662 c-97 -34 -178 -105 -224 -196 -37 -75 -111 -299 -111
-338 0 -53 -15 -85 -43 -92 -13 -3 -47 -22 -75 -41 -29 -19 -54 -35 -58 -35
-3 0 -28 -16 -55 -36 -27 -20 -49 -33 -49 -29 0 4 18 61 40 126 53 159 55 237
8 388 -27 89 -40 112 -79 155 -42 45 -48 49 -63 36 -49 -40 -105 -216 -125
-395 -7 -55 -16 -136 -21 -180 -5 -44 -12 -116 -15 -160 -8 -97 -45 -246 -80
-314 -36 -73 -84 -322 -87 -457 -3 -105 15 -213 43 -266 12 -23 -21 -88 -91
-183 -28 -38 -57 -79 -63 -90 -5 -11 -37 -55 -69 -97 -57 -76 -58 -78 -43
-102 9 -14 26 -26 38 -28 18 -2 23 -12 29 -51 4 -27 14 -57 23 -67 34 -38 155
-92 238 -106 116 -21 601 -28 1007 -15 388 13 530 23 655 44 50 9 133 21 185
26 132 15 168 27 214 72 37 37 38 42 32 85 -5 39 -3 48 15 63 l22 17 -37 81
c-40 90 -41 93 -23 93 7 0 29 14 50 31 l37 30 0 84 c0 122 -53 278 -119 348
-28 31 -91 67 -115 67 -8 0 -30 8 -48 19 -38 21 -114 48 -348 121 -280 88
-346 125 -390 223 -37 84 -61 200 -61 299 -1 136 72 381 172 582 22 45 30 71
25 89 -7 31 -150 179 -193 201 -40 20 -84 19 -148 -2z m10 -229 c6 -58 30
-179 63 -323 7 -29 -4 -269 -13 -278 -1 -1 -15 2 -31 9 -16 6 -54 14 -85 17
l-57 7 17 31 c9 17 29 50 44 73 51 77 49 79 -76 88 l-77 6 6 51 c6 57 67 247
91 286 16 26 93 99 105 100 3 0 10 -30 13 -67z m-651 -123 c1 -79 -9 -198 -31
-345 -16 -116 -10 -177 18 -183 8 -1 41 18 74 43 33 25 80 52 105 61 25 10 81
32 125 51 77 33 225 58 225 38 0 -4 -14 -32 -31 -61 -29 -52 -31 -53 -92 -65
-53 -10 -68 -18 -104 -57 -47 -49 -54 -83 -26 -114 9 -10 28 -18 42 -18 53 0
73 -11 67 -35 -6 -25 16 -51 34 -40 6 3 17 22 25 42 l15 36 98 -5 c127 -7 182
-23 182 -53 0 -21 -2 -22 -52 -13 -64 12 -134 7 -209 -16 -105 -31 -139 -94
-81 -149 34 -32 65 -34 148 -8 54 17 182 41 219 41 30 0 13 -16 -41 -39 -153
-66 -203 -158 -123 -225 71 -60 121 -48 215 50 70 74 71 74 89 54 19 -21 18
-22 -37 -73 -31 -29 -59 -62 -62 -74 -19 -61 65 -118 141 -95 42 13 163 108
163 129 0 15 9 16 29 4 10 -7 6 -17 -21 -47 -45 -50 -59 -78 -51 -101 32 -90
161 -60 224 53 17 29 34 54 37 54 12 -1 174 -58 179 -64 3 -3 -11 -24 -30 -48
-55 -67 -112 -171 -149 -270 l-33 -90 -95 7 c-52 3 -129 13 -170 20 -41 8
-111 17 -155 20 -77 6 -134 13 -460 56 -329 43 -297 35 -333 87 -59 88 -159
307 -202 442 -55 174 -62 276 -32 436 30 156 32 173 42 329 8 130 41 315 70
390 l11 30 21 -60 c12 -34 21 -88 22 -125z m-109 -1593 c55 -14 143 -30 195
-37 145 -17 170 -21 170 -30 0 -4 -11 -32 -25 -62 -30 -64 -33 -133 -7 -146
34 -18 173 -26 472 -26 286 -1 308 0 345 19 40 20 40 20 40 79 l-1 59 161 -8
c88 -5 178 -10 200 -11 22 -1 81 -3 130 -3 l91 -1 32 -65 31 -64 -107 -34
c-59 -19 -129 -39 -157 -45 -88 -20 -307 -52 -425 -62 -63 -6 -138 -14 -167
-18 -102 -17 -672 11 -996 48 -69 8 -237 53 -355 95 -10 4 -2 26 29 83 23 42
50 88 60 102 9 14 37 57 63 96 l45 71 38 -7 c21 -4 83 -19 138 -33z m660 -87
c93 -6 214 -17 269 -25 55 -8 116 -15 137 -15 36 0 38 -2 47 -42 6 -33 5 -45
-6 -51 -29 -18 -682 -11 -712 8 -15 9 -12 34 12 93 21 51 24 53 53 48 16 -3
106 -10 200 -16z"/>
<path d="M1935 400 c-3 -5 -1 -17 4 -27 5 -10 12 -26 15 -35 7 -24 15 -22 55
12 45 38 37 60 -23 60 -25 0 -47 -4 -51 -10z"/>
<path d="M1486 391 c-4 -5 -3 -16 0 -24 3 -8 1 -18 -5 -22 -6 -3 -11 -15 -11
-27 0 -18 4 -20 31 -14 17 3 42 6 55 6 32 0 31 28 0 40 -14 5 -30 18 -36 30
-11 21 -25 26 -34 11z"/>
<path d="M1126 355 c-33 -29 -37 -37 -26 -50 24 -28 120 -13 120 19 0 15 -38
66 -48 66 -4 -1 -25 -16 -46 -35z"/>
<path d="M1630 375 c-10 -12 -9 -22 4 -50 9 -19 20 -35 25 -35 11 0 71 64 71
77 0 25 -80 32 -100 8z"/>
<path d="M1776 359 c-14 -17 -26 -37 -26 -45 0 -18 30 -18 54 1 11 8 34 15 52
15 46 0 51 16 12 40 -45 27 -62 25 -92 -11z"/>
<path d="M1287 374 c-8 -9 43 -84 57 -84 6 1 26 14 45 30 49 42 37 60 -37 60
-32 0 -61 -3 -65 -6z"/>
</g>
</svg>
