<?xml version="1.0" encoding="UTF-8"?>
<svg xmlns="http://www.w3.org/2000/svg" xmlns:xlink="http://www.w3.org/1999/xlink" width="20px" height="18px" viewBox="0 0 19 18" version="1.1">
<g id="surface1">
<path style=" stroke:none;fill-rule:nonzero;fill:rgb(0%,0%,0%);fill-opacity:1;" d="M 9.785156 0.703125 C 9.171875 0.921875 8.65625 1.386719 8.367188 1.976562 C 8.132812 2.464844 7.664062 3.921875 7.664062 4.175781 C 7.664062 4.519531 7.566406 4.726562 7.390625 4.773438 C 7.308594 4.792969 7.09375 4.917969 6.914062 5.039062 C 6.730469 5.164062 6.574219 5.265625 6.546875 5.265625 C 6.53125 5.265625 6.371094 5.371094 6.199219 5.5 C 6.03125 5.632812 5.890625 5.714844 5.890625 5.691406 C 5.890625 5.664062 6.003906 5.292969 6.144531 4.871094 C 6.480469 3.835938 6.492188 3.328125 6.195312 2.347656 C 6.023438 1.769531 5.941406 1.621094 5.695312 1.339844 C 5.425781 1.046875 5.390625 1.019531 5.292969 1.105469 C 4.984375 1.367188 4.628906 2.511719 4.503906 3.675781 C 4.457031 4.03125 4.402344 4.558594 4.371094 4.84375 C 4.339844 5.128906 4.292969 5.597656 4.273438 5.886719 C 4.222656 6.515625 3.988281 7.484375 3.769531 7.925781 C 3.539062 8.402344 3.238281 10.019531 3.21875 10.898438 C 3.199219 11.582031 3.3125 12.285156 3.488281 12.628906 C 3.566406 12.777344 3.355469 13.199219 2.914062 13.820312 C 2.734375 14.066406 2.550781 14.332031 2.515625 14.402344 C 2.484375 14.476562 2.28125 14.761719 2.078125 15.035156 C 1.714844 15.527344 1.710938 15.542969 1.804688 15.699219 C 1.863281 15.789062 1.96875 15.867188 2.046875 15.878906 C 2.160156 15.894531 2.191406 15.957031 2.230469 16.210938 C 2.253906 16.386719 2.316406 16.582031 2.375 16.648438 C 2.589844 16.894531 3.355469 17.246094 3.882812 17.335938 C 4.617188 17.472656 7.6875 17.519531 10.261719 17.433594 C 12.71875 17.351562 13.617188 17.285156 14.410156 17.148438 C 14.726562 17.089844 15.25 17.011719 15.578125 16.980469 C 16.414062 16.882812 16.644531 16.804688 16.933594 16.511719 C 17.167969 16.269531 17.175781 16.238281 17.136719 15.957031 C 17.105469 15.703125 17.117188 15.644531 17.234375 15.546875 L 17.371094 15.4375 L 17.136719 14.910156 C 16.882812 14.324219 16.878906 14.304688 16.992188 14.304688 C 17.035156 14.304688 17.175781 14.214844 17.308594 14.105469 L 17.542969 13.910156 L 17.542969 13.363281 C 17.542969 12.570312 17.207031 11.554688 16.789062 11.101562 C 16.613281 10.898438 16.214844 10.664062 16.0625 10.664062 C 16.011719 10.664062 15.871094 10.613281 15.757812 10.542969 C 15.515625 10.40625 15.035156 10.230469 13.554688 9.753906 C 11.78125 9.183594 11.363281 8.941406 11.082031 8.304688 C 10.847656 7.757812 10.695312 7.003906 10.695312 6.359375 C 10.691406 5.476562 11.152344 3.882812 11.785156 2.574219 C 11.925781 2.28125 11.976562 2.113281 11.945312 1.996094 C 11.898438 1.792969 10.996094 0.832031 10.722656 0.6875 C 10.46875 0.558594 10.191406 0.566406 9.785156 0.703125 Z M 9.847656 2.191406 C 9.886719 2.570312 10.039062 3.355469 10.246094 4.292969 C 10.292969 4.480469 10.222656 6.042969 10.164062 6.101562 C 10.160156 6.105469 10.070312 6.085938 9.96875 6.042969 C 9.867188 6.003906 9.625 5.949219 9.429688 5.929688 L 9.070312 5.886719 L 9.175781 5.683594 C 9.234375 5.574219 9.359375 5.359375 9.457031 5.207031 C 9.777344 4.707031 9.765625 4.695312 8.972656 4.636719 L 8.488281 4.597656 L 8.523438 4.265625 C 8.5625 3.894531 8.949219 2.660156 9.101562 2.40625 C 9.203125 2.238281 9.691406 1.761719 9.765625 1.753906 C 9.785156 1.753906 9.828125 1.949219 9.847656 2.191406 Z M 5.726562 2.992188 C 5.730469 3.503906 5.667969 4.277344 5.527344 5.234375 C 5.425781 5.988281 5.464844 6.386719 5.644531 6.425781 C 5.695312 6.429688 5.902344 6.308594 6.113281 6.144531 C 6.320312 5.984375 6.617188 5.808594 6.777344 5.75 C 6.933594 5.683594 7.289062 5.539062 7.566406 5.417969 C 8.054688 5.203125 8.992188 5.039062 8.992188 5.167969 C 8.992188 5.195312 8.90625 5.378906 8.796875 5.566406 C 8.613281 5.90625 8.601562 5.910156 8.214844 5.988281 C 7.878906 6.054688 7.785156 6.105469 7.554688 6.359375 C 7.257812 6.679688 7.214844 6.898438 7.390625 7.101562 C 7.449219 7.167969 7.566406 7.21875 7.65625 7.21875 C 7.992188 7.21875 8.121094 7.289062 8.082031 7.445312 C 8.042969 7.609375 8.183594 7.777344 8.296875 7.707031 C 8.335938 7.6875 8.40625 7.5625 8.453125 7.433594 L 8.550781 7.199219 L 9.171875 7.230469 C 9.976562 7.277344 10.324219 7.378906 10.324219 7.574219 C 10.324219 7.710938 10.3125 7.71875 9.992188 7.660156 C 9.589844 7.582031 9.144531 7.613281 8.671875 7.765625 C 8.003906 7.964844 7.789062 8.375 8.15625 8.734375 C 8.371094 8.941406 8.570312 8.953125 9.09375 8.785156 C 9.4375 8.675781 10.246094 8.519531 10.480469 8.519531 C 10.671875 8.519531 10.5625 8.621094 10.222656 8.773438 C 9.253906 9.203125 8.9375 9.800781 9.441406 10.234375 C 9.894531 10.625 10.210938 10.546875 10.804688 9.910156 C 11.246094 9.429688 11.253906 9.429688 11.367188 9.558594 C 11.488281 9.695312 11.480469 9.703125 11.132812 10.035156 C 10.9375 10.222656 10.761719 10.4375 10.742188 10.515625 C 10.621094 10.910156 11.152344 11.28125 11.632812 11.132812 C 11.898438 11.046875 12.667969 10.429688 12.667969 10.292969 C 12.667969 10.195312 12.722656 10.191406 12.851562 10.269531 C 12.914062 10.3125 12.886719 10.378906 12.71875 10.574219 C 12.433594 10.898438 12.34375 11.082031 12.394531 11.230469 C 12.597656 11.816406 13.414062 11.621094 13.8125 10.886719 C 13.921875 10.695312 14.027344 10.535156 14.046875 10.535156 C 14.125 10.542969 15.148438 10.910156 15.179688 10.949219 C 15.199219 10.96875 15.113281 11.105469 14.992188 11.261719 C 14.644531 11.699219 14.28125 12.375 14.046875 13.019531 L 13.839844 13.605469 L 13.238281 13.558594 C 12.90625 13.539062 12.417969 13.472656 12.160156 13.429688 C 11.898438 13.375 11.457031 13.316406 11.179688 13.296875 C 10.691406 13.257812 10.328125 13.214844 8.265625 12.933594 C 6.179688 12.65625 6.382812 12.707031 6.15625 12.367188 C 5.78125 11.796875 5.148438 10.371094 4.875 9.496094 C 4.527344 8.363281 4.484375 7.699219 4.675781 6.660156 C 4.863281 5.644531 4.875 5.535156 4.941406 4.519531 C 4.992188 3.675781 5.199219 2.472656 5.382812 1.984375 L 5.453125 1.789062 L 5.585938 2.179688 C 5.660156 2.398438 5.71875 2.75 5.726562 2.992188 Z M 5.035156 13.351562 C 5.382812 13.441406 5.941406 13.546875 6.269531 13.589844 C 7.1875 13.703125 7.347656 13.726562 7.347656 13.785156 C 7.347656 13.8125 7.277344 13.996094 7.1875 14.1875 C 7 14.605469 6.980469 15.054688 7.144531 15.140625 C 7.359375 15.253906 8.238281 15.308594 10.132812 15.308594 C 11.945312 15.3125 12.085938 15.308594 12.316406 15.183594 C 12.570312 15.054688 12.570312 15.054688 12.570312 14.671875 L 12.566406 14.285156 L 13.585938 14.339844 C 14.140625 14.371094 14.710938 14.402344 14.851562 14.410156 C 14.992188 14.417969 15.363281 14.429688 15.675781 14.429688 L 16.25 14.4375 L 16.453125 14.859375 L 16.648438 15.273438 L 15.972656 15.496094 C 15.597656 15.621094 15.15625 15.75 14.976562 15.789062 C 14.421875 15.917969 13.035156 16.128906 12.285156 16.191406 C 11.886719 16.230469 11.414062 16.285156 11.230469 16.308594 C 10.582031 16.417969 6.972656 16.238281 4.921875 15.996094 C 4.484375 15.945312 3.421875 15.652344 2.671875 15.378906 C 2.609375 15.351562 2.660156 15.210938 2.855469 14.839844 C 3.003906 14.566406 3.171875 14.265625 3.238281 14.175781 C 3.292969 14.085938 3.46875 13.804688 3.636719 13.550781 L 3.921875 13.089844 L 4.160156 13.136719 C 4.292969 13.160156 4.6875 13.257812 5.035156 13.351562 Z M 9.214844 13.917969 C 9.804688 13.957031 10.570312 14.027344 10.917969 14.078125 C 11.265625 14.128906 11.652344 14.175781 11.785156 14.175781 C 12.015625 14.175781 12.027344 14.1875 12.085938 14.449219 C 12.121094 14.664062 12.117188 14.742188 12.046875 14.78125 C 11.863281 14.898438 7.726562 14.851562 7.535156 14.730469 C 7.441406 14.671875 7.460938 14.507812 7.613281 14.125 C 7.746094 13.792969 7.765625 13.78125 7.949219 13.8125 C 8.050781 13.832031 8.621094 13.878906 9.214844 13.917969 Z M 9.214844 13.917969 "/>
<path style=" stroke:none;fill-rule:nonzero;fill:rgb(0%,0%,0%);fill-opacity:1;" d="M 12.253906 15.410156 C 12.234375 15.445312 12.25 15.523438 12.28125 15.585938 C 12.3125 15.652344 12.355469 15.757812 12.375 15.816406 C 12.417969 15.972656 12.46875 15.957031 12.722656 15.738281 C 13.007812 15.488281 12.957031 15.347656 12.578125 15.347656 C 12.417969 15.347656 12.28125 15.371094 12.253906 15.410156 Z M 12.253906 15.410156 "/>
<path style=" stroke:none;fill-rule:nonzero;fill:rgb(0%,0%,0%);fill-opacity:1;" d="M 9.410156 15.46875 C 9.386719 15.503906 9.390625 15.574219 9.410156 15.625 C 9.429688 15.679688 9.417969 15.742188 9.378906 15.769531 C 9.339844 15.789062 9.308594 15.867188 9.308594 15.945312 C 9.308594 16.0625 9.335938 16.074219 9.507812 16.035156 C 9.613281 16.015625 9.773438 15.996094 9.855469 15.996094 C 10.058594 15.996094 10.050781 15.816406 9.855469 15.738281 C 9.765625 15.703125 9.664062 15.621094 9.625 15.542969 C 9.558594 15.40625 9.46875 15.371094 9.410156 15.46875 Z M 9.410156 15.46875 "/>
<path style=" stroke:none;fill-rule:nonzero;fill:rgb(0%,0%,0%);fill-opacity:1;" d="M 7.132812 15.703125 C 6.921875 15.894531 6.898438 15.945312 6.964844 16.03125 C 7.117188 16.210938 7.726562 16.113281 7.726562 15.90625 C 7.726562 15.808594 7.484375 15.476562 7.421875 15.476562 C 7.398438 15.484375 7.265625 15.582031 7.132812 15.703125 Z M 7.132812 15.703125 "/>
<path style=" stroke:none;fill-rule:nonzero;fill:rgb(0%,0%,0%);fill-opacity:1;" d="M 10.324219 15.574219 C 10.261719 15.652344 10.265625 15.71875 10.347656 15.898438 C 10.40625 16.023438 10.476562 16.128906 10.507812 16.128906 C 10.578125 16.128906 10.957031 15.710938 10.957031 15.625 C 10.957031 15.464844 10.449219 15.417969 10.324219 15.574219 Z M 10.324219 15.574219 "/>
<path style=" stroke:none;fill-rule:nonzero;fill:rgb(0%,0%,0%);fill-opacity:1;" d="M 11.246094 15.679688 C 11.160156 15.789062 11.082031 15.917969 11.082031 15.972656 C 11.082031 16.089844 11.273438 16.089844 11.425781 15.964844 C 11.496094 15.914062 11.640625 15.867188 11.753906 15.867188 C 12.046875 15.867188 12.078125 15.761719 11.832031 15.605469 C 11.546875 15.429688 11.4375 15.445312 11.246094 15.679688 Z M 11.246094 15.679688 "/>
<path style=" stroke:none;fill-rule:nonzero;fill:rgb(0%,0%,0%);fill-opacity:1;" d="M 8.152344 15.582031 C 8.101562 15.640625 8.421875 16.128906 8.511719 16.128906 C 8.550781 16.121094 8.675781 16.035156 8.796875 15.933594 C 9.105469 15.660156 9.03125 15.542969 8.5625 15.542969 C 8.359375 15.542969 8.175781 15.5625 8.152344 15.582031 Z M 8.152344 15.582031 "/>
</g>
</svg>
