<?xml version="1.0" standalone="no"?>
<!DOCTYPE svg PUBLIC "-//W3C//DTD SVG 20010904//EN"
 "http://www.w3.org/TR/2001/REC-SVG-20010904/DTD/svg10.dtd">
<svg version="1.0" xmlns="http://www.w3.org/2000/svg"
 width="900.000000pt" height="555.000000pt" viewBox="0 0 900.000000 555.000000"
 preserveAspectRatio="xMidYMid meet">
<metadata>
Created by potrace 1.10, written by Peter Selinger 2001-2011
</metadata>
<g transform="translate(0.000000,555.000000) scale(0.100000,-0.100000)"
fill="#000000" stroke="none">
<path d="M2660 5353 c-56 -20 -121 -61 -168 -106 -197 -186 -281 -292 -282
-354 0 -11 18 -56 40 -100 39 -73 132 -286 160 -363 7 -19 19 -49 26 -67 8
-17 14 -36 14 -41 0 -6 6 -23 14 -39 24 -47 42 -104 60 -183 19 -83 43 -172
59 -210 10 -25 22 -117 34 -259 6 -70 -6 -194 -28 -291 -6 -25 -14 -70 -19
-101 -19 -117 -109 -327 -161 -375 -19 -17 -61 -50 -94 -72 -62 -41 -240 -132
-258 -132 -10 0 -114 -31 -332 -101 -49 -15 -142 -46 -205 -68 -63 -23 -124
-41 -135 -41 -22 0 -101 -24 -150 -45 -16 -8 -56 -23 -89 -34 -32 -12 -93 -39
-135 -61 -43 -22 -89 -40 -103 -40 -61 0 -172 -70 -233 -148 -67 -84 -153
-272 -176 -380 -5 -23 -13 -51 -19 -61 -15 -30 -30 -301 -18 -355 7 -36 20
-55 56 -87 26 -23 66 -51 90 -62 31 -16 42 -27 42 -44 0 -12 -27 -79 -60 -147
-69 -144 -74 -175 -30 -208 l30 -22 -2 -97 -3 -97 54 -58 c66 -71 130 -111
191 -119 25 -4 72 -13 106 -21 33 -8 89 -14 124 -14 35 0 89 -4 119 -10 31 -5
88 -15 126 -20 220 -32 269 -39 317 -49 29 -6 141 -16 248 -21 107 -5 220 -14
250 -20 30 -5 219 -12 420 -15 201 -3 421 -10 490 -17 155 -14 1179 -12 1333
3 75 7 152 7 250 0 198 -15 1150 -16 1312 -2 72 6 290 13 485 16 195 3 382 9
415 15 33 6 148 15 255 20 107 6 219 15 248 21 48 10 97 17 317 49 39 5 95 15
126 20 30 6 84 10 119 10 35 0 91 6 124 14 34 8 81 17 106 21 61 8 125 48 191
119 l54 58 -3 97 -2 97 30 22 c44 33 39 64 -30 207 -33 68 -60 135 -60 148 0
17 11 28 45 45 76 37 132 96 143 150 13 63 -1 302 -23 372 -35 118 -47 156
-60 185 -105 233 -163 305 -299 367 -21 10 -50 18 -64 18 -14 0 -60 18 -103
40 -42 22 -103 49 -135 60 -33 12 -67 26 -77 31 -27 15 -139 49 -162 49 -11 0
-72 18 -135 40 -63 23 -140 49 -170 60 -30 11 -86 28 -125 39 -312 88 -456
155 -587 271 -33 29 -53 59 -78 117 -17 43 -36 87 -41 98 -19 43 -42 122 -50
170 -4 27 -13 73 -18 100 -26 128 -33 196 -27 275 9 134 22 232 36 275 30 94
38 124 55 200 18 83 36 140 61 188 8 16 14 33 14 39 0 5 6 24 14 41 7 18 19
48 26 67 28 77 121 290 160 363 22 44 40 89 40 100 -1 63 -85 168 -282 354
-78 74 -160 113 -238 113 -33 0 -77 -7 -97 -15 -19 -8 -42 -15 -49 -15 -7 0
-37 -11 -66 -25 -108 -50 -180 -97 -251 -164 -57 -53 -187 -256 -187 -292 0
-6 -6 -25 -14 -42 -24 -57 -62 -162 -76 -212 -14 -48 -39 -119 -50 -137 -6
-10 -10 -24 -10 -33 0 -8 -6 -34 -14 -57 -8 -24 -17 -90 -21 -147 -3 -58 -8
-108 -10 -111 -3 -4 -42 -22 -87 -40 -46 -18 -108 -52 -138 -75 -30 -23 -77
-54 -105 -68 -27 -14 -81 -48 -120 -76 -73 -53 -103 -64 -90 -33 4 9 11 33 15
52 9 42 60 192 90 270 12 30 26 76 30 101 5 26 13 64 19 85 25 90 7 291 -37
414 -6 14 -18 52 -27 85 -40 133 -73 217 -94 235 -3 3 -35 38 -70 78 -75 86
-104 93 -145 39 -27 -36 -74 -133 -108 -225 -11 -31 -24 -60 -27 -65 -4 -4
-31 49 -60 117 -89 212 -128 244 -200 168 -128 -135 -139 -153 -196 -347 -9
-33 -21 -70 -26 -82 -4 -12 -18 -62 -29 -110 -39 -159 -18 -359 55 -528 7 -16
27 -77 44 -135 18 -58 36 -118 41 -134 5 -16 8 -32 5 -34 -5 -5 -64 30 -130
79 -28 20 -60 39 -72 43 -11 4 -54 31 -95 60 -41 29 -112 68 -157 86 -46 18
-84 38 -86 44 -2 6 -8 61 -13 121 -11 123 -40 241 -75 310 -6 11 -14 33 -18
50 -9 38 -48 149 -70 200 -5 11 -15 39 -23 62 -7 24 -33 75 -57 113 -24 39
-49 80 -55 91 -28 51 -138 145 -229 197 -60 34 -144 72 -159 72 -7 0 -30 7
-49 15 -35 14 -136 19 -167 8z m333 -421 c72 -62 147 -152 147 -176 0 -5 13
-44 29 -85 16 -42 37 -103 47 -136 10 -33 24 -71 31 -85 7 -14 13 -33 13 -43
0 -10 5 -28 12 -40 6 -12 15 -58 20 -102 4 -44 9 -91 10 -105 3 -24 1 -25 -57
-27 -33 -2 -109 -10 -170 -19 -101 -15 -145 -32 -145 -56 0 -10 69 -114 115
-173 35 -46 65 -107 65 -135 0 -20 -50 -37 -71 -25 -14 9 -117 -11 -187 -36
-77 -28 -88 -26 -96 19 -3 20 -6 117 -6 215 0 106 -4 186 -11 198 -11 21 -2
87 26 184 8 28 20 75 26 105 16 83 35 163 42 180 10 25 27 147 37 272 5 65 11
122 15 128 12 19 31 9 108 -58z m3079 23 c4 -22 7 -70 7 -107 1 -37 5 -87 11
-110 5 -24 14 -68 20 -98 6 -30 18 -84 26 -120 8 -36 21 -94 29 -130 7 -36 17
-78 23 -95 22 -68 32 -153 22 -180 -5 -14 -10 -106 -10 -204 0 -98 -3 -193 -6
-210 -7 -35 -19 -37 -79 -15 -65 23 -182 45 -209 38 -29 -7 -66 11 -66 32 0
24 39 94 94 169 77 104 88 124 81 145 -4 11 -16 22 -28 25 -81 18 -212 35
-269 35 -37 0 -70 5 -73 11 -4 5 -2 22 4 37 5 15 12 56 14 92 4 72 24 144 73
258 8 18 14 43 14 55 0 12 14 53 30 92 17 38 30 74 30 80 0 41 206 249 240
243 8 -2 18 -20 22 -43z m-1798 3 c48 -161 59 -204 81 -318 10 -47 24 -110 32
-140 11 -44 12 -68 3 -115 -6 -33 -14 -114 -19 -180 -5 -66 -14 -145 -20 -175
-6 -30 -16 -125 -21 -210 -14 -207 -23 -280 -50 -375 -12 -44 -26 -100 -31
-125 -5 -24 -14 -49 -19 -54 -6 -6 -10 -17 -10 -25 0 -8 -20 -56 -44 -106 -46
-95 -76 -177 -76 -209 0 -11 -6 -42 -14 -70 -14 -48 -24 -96 -60 -276 -24
-117 -39 -262 -43 -413 -3 -114 -1 -152 16 -217 11 -44 25 -88 30 -99 34 -63
-18 -171 -94 -192 -55 -15 -219 -38 -350 -49 -61 -5 -123 -13 -138 -19 -16 -6
-47 -11 -70 -11 -23 0 -58 -4 -77 -10 -19 -5 -68 -12 -110 -15 -41 -3 -100 -9
-130 -14 -30 -5 -91 -13 -135 -16 -44 -4 -105 -13 -135 -21 -30 -8 -90 -14
-135 -14 -44 0 -99 -5 -123 -10 -24 -6 -96 -15 -160 -20 -120 -10 -210 -22
-295 -41 -27 -6 -94 -15 -150 -19 -56 -5 -144 -14 -196 -20 -66 -8 -96 -9
-104 -1 -10 10 -33 66 -43 106 -21 79 -149 354 -205 438 -22 32 -39 61 -39 63
0 10 -95 129 -123 155 -16 14 -25 32 -22 40 6 17 79 51 145 69 25 6 83 26 130
45 47 18 90 31 96 28 6 -2 23 -30 38 -62 74 -161 199 -261 325 -261 53 0 65 4
96 31 41 36 59 90 46 137 -5 17 -41 68 -80 113 -39 45 -71 87 -71 94 0 7 9 20
19 29 18 17 20 17 38 -4 10 -12 43 -45 73 -73 30 -29 69 -67 87 -84 17 -18 35
-33 39 -33 4 0 15 -6 23 -14 36 -32 141 -76 182 -76 40 0 162 41 184 61 12 12
35 87 35 117 0 36 -26 70 -139 181 l-106 103 39 34 c22 19 43 34 47 34 4 0 29
-25 56 -57 26 -31 56 -63 66 -72 10 -9 26 -23 36 -31 9 -8 27 -30 40 -48 52
-75 177 -114 271 -86 95 30 150 88 164 176 8 48 -30 131 -82 180 -43 41 -164
114 -242 147 -72 30 -102 50 -95 61 8 13 100 12 150 -1 22 -6 81 -15 131 -19
50 -5 100 -13 110 -18 46 -23 212 -72 244 -72 74 1 180 96 180 162 0 65 -89
158 -165 171 -16 2 -43 10 -60 15 -158 57 -284 63 -493 26 l-33 -6 3 43 c3 43
4 44 48 58 25 8 61 20 80 27 43 16 296 29 378 19 l60 -7 34 -66 c27 -53 39
-68 59 -70 32 -4 55 34 45 75 -14 60 -16 58 64 64 137 10 190 44 190 119 0 36
-7 56 -30 88 -16 23 -30 46 -30 51 0 21 -105 101 -132 101 -15 0 -39 5 -55 11
-15 7 -57 14 -93 18 l-64 6 -69 114 c-47 77 -66 116 -59 123 7 7 61 9 149 5
l138 -5 130 -57 c72 -32 162 -68 200 -82 140 -50 282 -132 370 -215 48 -46 69
-48 95 -5 19 29 20 45 16 162 -3 119 -26 301 -40 323 -3 5 -8 79 -11 163 -4
85 -10 170 -15 189 -16 60 -22 192 -11 260 12 84 30 153 42 165 5 5 9 20 9 33
0 26 29 82 42 82 5 0 10 -6 12 -12z m440 -20 c18 -44 34 -92 53 -158 20 -72
25 -275 8 -333 -7 -23 -15 -113 -18 -199 -3 -86 -7 -161 -11 -166 -14 -23 -40
-218 -43 -330 -4 -112 -2 -126 17 -157 12 -19 30 -35 39 -35 10 0 38 20 63 45
25 25 48 45 51 45 3 0 34 19 69 43 72 50 143 85 243 120 39 14 129 50 200 82
l130 57 138 5 c88 4 142 2 149 -5 7 -7 -12 -46 -59 -123 l-69 -114 -64 -6
c-36 -4 -78 -11 -93 -18 -16 -6 -40 -11 -55 -11 -27 0 -132 -80 -132 -101 0
-5 -13 -28 -30 -51 -39 -53 -42 -124 -7 -155 35 -31 107 -53 174 -53 34 0 64
-4 67 -8 3 -5 0 -25 -6 -45 -23 -74 36 -118 78 -59 12 15 24 38 27 52 4 14 14
34 23 45 14 19 26 20 213 18 151 -1 206 -5 228 -16 15 -8 46 -18 68 -22 54 -9
65 -21 65 -67 0 -40 0 -40 -32 -34 -104 19 -259 28 -319 18 -73 -12 -162 -34
-199 -50 -14 -6 -36 -13 -51 -16 -69 -15 -149 -102 -149 -164 0 -46 49 -104
125 -149 33 -20 85 -15 185 18 52 18 103 36 114 41 10 5 60 13 110 18 50 4
112 13 137 20 55 13 141 10 146 -6 2 -6 -31 -26 -74 -45 -101 -43 -218 -113
-265 -157 -53 -50 -90 -133 -82 -180 23 -125 135 -200 271 -181 76 11 130 42
175 103 18 25 42 50 53 57 11 6 43 39 70 72 28 33 55 62 61 64 5 2 28 -12 50
-31 l39 -35 -106 -103 c-112 -109 -139 -144 -139 -179 0 -26 20 -101 31 -113
18 -21 146 -66 187 -66 42 0 147 43 183 76 8 8 19 14 23 14 4 0 22 15 40 33
18 17 57 55 87 83 30 28 61 61 70 74 13 20 18 21 37 11 12 -6 22 -20 22 -30 0
-10 -32 -55 -71 -100 -39 -45 -75 -96 -80 -113 -12 -45 7 -103 48 -138 72 -64
217 -27 325 81 22 23 79 113 103 166 11 24 25 44 30 47 6 2 42 -9 80 -24 39
-16 97 -36 130 -45 81 -23 153 -56 160 -74 3 -8 -6 -26 -22 -40 -30 -27 -114
-135 -127 -161 -10 -23 -29 -52 -52 -85 -29 -40 -114 -220 -154 -325 -18 -47
-39 -100 -46 -118 -8 -18 -14 -39 -14 -46 0 -33 -26 -38 -122 -26 -51 6 -139
15 -195 20 -56 4 -123 13 -150 19 -85 19 -175 31 -295 41 -64 5 -136 14 -160
20 -24 5 -79 10 -123 10 -45 0 -105 6 -135 14 -30 8 -91 17 -135 21 -44 3
-105 11 -135 16 -30 5 -89 11 -130 14 -42 3 -91 10 -110 15 -19 6 -54 10 -77
10 -23 0 -54 5 -70 11 -15 6 -77 14 -138 19 -155 13 -380 48 -389 62 -1 1 -17
22 -34 44 -35 46 -42 95 -19 142 8 15 22 63 31 107 27 123 13 403 -30 615 -36
180 -46 228 -60 276 -8 28 -14 64 -14 80 -1 16 -7 40 -15 54 -8 14 -14 32 -15
41 0 17 -24 71 -66 149 -13 25 -24 52 -24 61 0 8 -4 19 -10 25 -5 5 -14 30
-19 54 -5 25 -19 81 -31 125 -22 81 -36 181 -45 310 -9 132 -24 280 -34 330
-5 28 -10 80 -10 117 -1 38 -8 109 -17 160 -14 81 -14 97 -1 142 8 28 23 87
32 131 29 139 46 208 62 260 9 28 17 56 19 63 6 22 24 13 38 -20z m-211 -1433
c31 -156 40 -231 39 -335 -1 -158 -41 -391 -67 -391 -15 0 -41 104 -54 221
-18 156 -5 379 28 520 6 25 14 56 17 70 8 35 17 13 37 -85z m15 -2034 c39 -19
242 -71 281 -71 31 0 60 -31 96 -105 11 -22 32 -56 46 -75 35 -47 126 -198
173 -287 41 -78 41 -103 2 -103 -14 0 -27 -4 -31 -9 -3 -5 -20 -12 -38 -16
-17 -4 -70 -19 -117 -35 -47 -15 -112 -36 -145 -45 -33 -10 -74 -24 -92 -32
-17 -7 -42 -13 -55 -13 -12 0 -45 -7 -72 -15 -62 -19 -118 -19 -182 -1 -27 8
-66 17 -88 21 -21 3 -46 10 -55 14 -9 5 -43 16 -76 26 -33 10 -98 30 -145 45
-47 16 -100 31 -117 35 -18 4 -35 11 -38 16 -4 5 -17 9 -31 9 -39 0 -39 25 2
103 47 89 138 240 173 287 14 19 35 53 46 75 36 74 65 105 96 105 36 0 225 47
284 71 27 11 62 11 83 0z m-584 -110 c3 -5 -1 -15 -10 -22 -8 -7 -49 -59 -91
-116 -42 -57 -78 -102 -80 -100 -2 2 -26 48 -53 103 -32 63 -47 101 -40 108
23 23 262 47 274 27z m1272 -6 c43 -8 81 -18 86 -23 7 -7 -82 -199 -96 -205
-2 -1 -41 46 -85 105 -44 58 -85 109 -91 113 -22 13 3 25 55 25 29 0 88 -7
131 -15z m-1659 -65 c87 -177 95 -217 51 -256 -18 -17 -40 -19 -195 -21 -133
-2 -180 -5 -197 -16 -19 -13 -79 -14 -377 -10 -194 2 -403 4 -464 4 -75 -1
-125 4 -159 15 l-48 16 7 42 c20 124 19 119 48 127 16 4 81 13 145 19 65 6
134 16 155 21 21 6 88 14 150 19 62 5 153 14 202 20 50 7 167 13 260 14 94 2
212 10 265 19 122 20 141 18 157 -13z m2003 13 c59 -9 180 -17 275 -19 94 -1
211 -7 260 -14 50 -6 142 -15 205 -20 63 -5 131 -13 150 -19 19 -5 87 -15 152
-21 64 -6 129 -15 145 -19 29 -8 28 -3 48 -127 l7 -42 -48 -16 c-34 -11 -84
-16 -159 -15 -60 0 -269 -2 -464 -4 -299 -4 -358 -3 -377 10 -17 11 -64 14
-197 16 -155 2 -177 4 -195 21 -37 33 -37 67 2 146 20 40 36 77 36 84 0 18 30
56 43 56 7 0 59 -8 117 -17z m-3527 -142 c7 -7 -2 -74 -18 -141 -15 -60 35
-109 150 -144 53 -17 105 -19 455 -22 217 -2 427 -6 467 -10 88 -8 322 12 381
32 52 17 122 19 122 2 0 -6 -10 -25 -23 -42 -37 -49 -38 -52 -16 -80 16 -20
19 -35 15 -64 -9 -51 4 -65 65 -72 53 -5 65 -14 50 -38 -6 -10 -58 -14 -202
-18 -107 -2 -225 -9 -264 -15 -120 -16 -688 -20 -775 -4 -163 30 -300 45 -405
45 -60 0 -128 5 -150 11 -37 9 -81 17 -310 55 -49 8 -126 19 -170 24 -75 9
-159 29 -213 51 -13 5 -34 9 -48 9 -14 0 -40 6 -57 13 -18 8 -79 29 -137 47
-190 59 -200 63 -200 81 0 10 4 20 9 24 10 6 14 13 80 143 l42 82 264 2 c146
1 277 3 293 4 15 1 79 8 142 14 63 6 147 15 185 18 82 8 256 3 268 -7z m5258
-1 c74 -5 172 -15 219 -20 47 -5 196 -10 333 -11 l247 0 42 -82 c65 -129 69
-136 79 -142 5 -4 9 -15 9 -25 0 -14 -14 -23 -57 -36 -32 -9 -89 -28 -128 -41
-38 -14 -81 -27 -95 -30 -14 -3 -39 -11 -57 -19 -17 -8 -41 -14 -53 -14 -21 0
-98 -22 -145 -41 -11 -5 -60 -13 -110 -18 -49 -6 -130 -17 -180 -25 -49 -9
-130 -22 -180 -30 -49 -9 -108 -20 -130 -25 -22 -6 -89 -11 -150 -11 -105 0
-242 -15 -405 -45 -86 -15 -674 -12 -770 4 -30 6 -147 12 -259 15 -153 4 -206
8 -212 18 -15 24 -3 33 50 38 62 7 73 20 65 78 -4 24 -2 42 3 42 6 0 15 11 21
24 9 21 6 30 -18 63 -16 21 -30 44 -30 51 0 17 69 16 122 -3 60 -20 298 -38
383 -30 39 4 192 7 340 7 303 -2 528 9 595 28 61 18 123 60 134 92 6 18 6 40
-2 65 -7 21 -13 58 -14 83 l-3 45 90 6 c50 3 99 4 111 3 11 -2 81 -8 155 -14z"/>
<path d="M1933 830 c-39 -16 -27 -46 39 -100 42 -33 72 -50 90 -50 25 0 28 3
28 35 0 21 9 48 22 65 33 46 14 60 -81 59 -42 0 -86 -4 -98 -9z"/>
<path d="M2945 779 c-12 -19 -41 -41 -72 -55 -77 -35 -68 -74 18 -74 25 0 61
-5 78 -11 24 -8 39 -9 57 0 30 13 30 33 3 78 -12 18 -18 41 -15 50 8 19 -10
43 -33 43 -9 0 -25 -14 -36 -31z"/>
<path d="M2275 774 c-69 -34 -80 -46 -66 -73 10 -18 21 -21 72 -21 59 0 105
-15 141 -47 10 -9 25 -12 37 -8 33 10 29 67 -8 97 -15 13 -36 36 -46 51 -22
35 -62 35 -130 1z"/>
<path d="M2558 789 c-34 -19 -22 -61 33 -117 54 -55 94 -68 105 -34 9 25 33
75 46 94 10 14 8 22 -12 43 -21 22 -32 25 -89 25 -36 0 -74 -5 -83 -11z"/>
<path d="M3240 783 c-104 -5 -125 -28 -72 -78 48 -46 113 -95 126 -95 25 0
119 131 114 159 -3 18 -36 20 -168 14z"/>
<path d="M6830 825 c-11 -13 -10 -21 8 -45 13 -17 22 -44 22 -65 0 -32 3 -35
28 -35 18 0 48 17 90 50 97 79 83 106 -59 109 -58 1 -79 -2 -89 -14z"/>
<path d="M5945 798 c-2 -7 -6 -29 -9 -49 -4 -21 -13 -42 -21 -49 -43 -35 7
-82 66 -61 17 6 53 11 78 11 86 0 95 39 19 74 -32 14 -61 36 -73 55 -20 31
-52 41 -60 19z"/>
<path d="M6220 775 c-20 -22 -22 -29 -12 -43 6 -9 22 -38 34 -64 29 -64 50
-63 117 4 36 38 51 60 51 80 0 37 -25 48 -103 48 -55 0 -67 -3 -87 -25z"/>
<path d="M6518 745 c-35 -38 -48 -61 -48 -83 0 -36 31 -52 58 -30 41 32 72 43
137 48 70 5 70 5 70 34 0 26 -7 33 -55 57 -82 42 -106 38 -162 -26z"/>
<path d="M5547 784 c-14 -14 -5 -40 36 -98 56 -79 69 -86 104 -58 15 12 45 34
66 47 47 32 67 70 46 89 -15 15 -240 32 -252 20z"/>
</g>
</svg>
