<?xml version="1.0" standalone="no"?>
<!DOCTYPE svg PUBLIC "-//W3C//DTD SVG 20010904//EN"
 "http://www.w3.org/TR/2001/REC-SVG-20010904/DTD/svg10.dtd">
<svg version="1.0" xmlns="http://www.w3.org/2000/svg"
 width="300.000000pt" height="185.000000pt" viewBox="0 0 300.000000 185.000000"
 preserveAspectRatio="xMidYMid meet">
<metadata>
Created by potrace 1.10, written by Peter Selinger 2001-2011
</metadata>
<g transform="translate(0.000000,185.000000) scale(0.100000,-0.100000)"
fill="#000000" stroke="none">
<path d="M845 1759 c-53 -46 -93 -91 -100 -111 -3 -9 5 -38 18 -65 49 -98 99
-252 112 -346 7 -53 -6 -135 -36 -217 -15 -40 -30 -62 -58 -82 -37 -26 -231
-98 -320 -119 -24 -5 -69 -21 -100 -35 -31 -14 -71 -32 -89 -39 -56 -25 -110
-141 -113 -246 -2 -60 -1 -64 31 -91 l34 -28 -24 -50 c-18 -39 -21 -53 -12
-62 7 -7 12 -29 12 -49 0 -29 7 -43 31 -63 17 -14 36 -26 42 -26 7 0 62 -7
122 -16 264 -36 454 -43 1100 -43 646 0 836 7 1100 43 61 9 115 16 122 16 6 0
25 12 42 26 24 20 31 34 31 63 0 20 5 42 12 49 9 9 6 23 -12 62 l-24 50 34 28
c32 27 33 31 31 91 -3 105 -57 221 -113 246 -18 7 -58 25 -89 39 -31 14 -76
30 -100 35 -89 21 -283 93 -320 119 -28 20 -43 42 -58 82 -30 82 -43 164 -36
217 13 94 63 248 112 346 13 27 21 56 18 66 -6 21 -87 106 -122 128 -52 34
-177 -18 -228 -95 -35 -53 -95 -224 -95 -271 0 -34 -4 -40 -32 -52 -18 -7 -61
-32 -95 -56 -35 -23 -63 -41 -63 -39 0 2 14 44 30 94 17 50 30 109 30 131 0
66 -45 193 -81 226 l-31 30 -19 -23 c-10 -13 -23 -41 -29 -63 -6 -21 -13 -39
-15 -39 -2 0 -9 18 -15 39 -6 22 -19 50 -29 63 l-19 23 -31 -30 c-36 -33 -81
-160 -81 -226 0 -22 14 -81 30 -131 17 -50 30 -92 30 -95 0 -2 -30 17 -66 43
-37 25 -79 50 -94 56 -24 8 -28 15 -32 61 -7 67 -61 215 -98 266 -36 49 -102
89 -162 97 -41 6 -48 3 -83 -27z m160 -49 c19 -12 35 -26 35 -32 0 -6 -8 -4
-17 4 -43 36 -86 21 -97 -34 -32 -163 -39 -197 -45 -207 -8 -12 -91 166 -91
194 0 21 55 80 91 98 36 17 69 11 124 -23z m1144 -6 c22 -19 43 -44 46 -55 8
-26 -74 -226 -85 -208 -7 10 -14 44 -46 207 -3 12 -13 31 -24 42 -21 21 -42
18 -73 -8 -9 -8 -20 -13 -23 -10 -8 8 53 49 94 63 44 16 62 11 111 -31z
m-1115 -87 c17 -27 62 -160 70 -204 5 -31 3 -33 -22 -33 -43 0 -102 -12 -102
-20 0 -5 16 -32 36 -61 l36 -54 -48 -6 c-27 -3 -57 -9 -66 -13 -28 -13 -29
144 -1 269 13 55 23 119 23 143 l0 43 30 -21 c17 -12 37 -32 44 -43z m1023
-142 c24 -105 21 -261 -5 -249 -9 4 -39 10 -66 13 l-48 6 36 54 c20 29 36 56
36 61 0 8 -59 20 -102 20 -25 0 -26 2 -21 38 4 20 19 73 35 117 21 60 37 88
65 113 l38 34 7 -64 c3 -35 15 -99 25 -143z m-602 84 c12 -61 12 -89 -1 -227
-15 -158 -28 -223 -59 -281 -43 -83 -75 -323 -55 -407 12 -48 12 -57 -3 -71
-17 -17 -145 -38 -447 -73 -96 -11 -204 -25 -240 -30 -108 -16 -101 -20 -139
74 -18 46 -51 107 -72 135 -21 28 -39 53 -39 56 0 2 21 11 48 19 26 8 55 17
64 21 12 5 21 -3 34 -30 32 -68 110 -95 141 -49 12 19 10 25 -17 59 -16 21
-30 42 -30 46 0 18 22 8 46 -20 40 -48 90 -74 126 -67 70 14 76 50 18 109 -37
37 -39 42 -25 56 11 11 18 13 23 5 17 -27 71 -83 88 -92 39 -20 100 5 110 44
9 36 -21 73 -89 108 -31 16 -55 32 -52 36 5 8 128 -13 178 -31 33 -12 41 -11
65 3 85 52 -26 129 -164 115 -48 -5 -54 -3 -54 13 0 14 10 20 43 25 107 15
145 11 159 -20 13 -30 34 -27 31 4 -2 17 3 21 23 21 14 0 34 5 45 10 47 26 -4
105 -75 115 -37 6 -47 13 -65 45 -11 21 -21 41 -21 45 0 14 94 -5 175 -36 44
-17 102 -46 128 -65 26 -19 53 -32 59 -28 6 4 8 28 5 63 -3 31 -11 112 -17
180 -11 118 -6 182 18 225 7 13 19 -23 37 -105z m134 49 c11 -43 11 -78 1
-173 -22 -220 -23 -232 -12 -239 6 -4 33 9 59 28 60 42 193 95 264 103 l53 6
-15 -24 c-9 -13 -22 -34 -29 -46 -9 -14 -28 -23 -57 -28 -68 -10 -120 -90 -74
-115 11 -5 31 -10 45 -10 20 0 25 -4 23 -21 -3 -31 18 -34 31 -4 14 31 52 35
160 20 32 -5 42 -11 42 -25 0 -16 -6 -18 -54 -13 -138 14 -249 -63 -164 -115
24 -14 32 -15 65 -3 50 18 173 39 178 31 3 -4 -21 -20 -52 -36 -98 -51 -122
-119 -51 -148 32 -14 85 -7 97 12 3 5 21 26 39 47 31 35 35 36 50 21 15 -15
14 -18 -20 -46 -20 -17 -40 -39 -43 -50 -10 -30 12 -58 50 -66 39 -7 88 18
129 67 24 28 46 38 46 20 0 -4 -14 -25 -30 -46 -27 -34 -29 -40 -17 -59 31
-46 109 -19 141 49 13 27 22 35 34 30 9 -4 38 -13 65 -21 26 -8 47 -17 47 -19
0 -3 -18 -28 -39 -56 -21 -28 -54 -89 -72 -135 -38 -94 -31 -90 -139 -74 -36
5 -144 19 -240 30 -302 35 -430 56 -447 73 -15 14 -15 23 -3 71 21 87 -12 321
-58 413 -29 57 -41 118 -57 285 -10 111 -12 164 -4 197 22 99 32 130 39 126 3
-2 12 -28 19 -57z m-90 -360 c1 -10 -3 -18 -9 -18 -5 0 -10 17 -9 38 0 30 2
33 9 17 5 -11 9 -28 9 -37z m-389 -47 c90 -30 69 -72 -26 -51 -25 6 -63 6 -99
0 -66 -11 -75 -8 -68 19 4 15 18 21 56 26 39 5 82 18 82 24 0 0 25 -8 55 -18z
m403 -136 c1 -65 -3 -118 -10 -130 -11 -19 -12 -18 -19 10 -11 39 -11 189 0
240 8 39 9 39 18 15 6 -14 11 -74 11 -135z m497 131 c45 -9 56 -15 58 -33 2
-13 2 -23 0 -23 -2 0 -30 4 -62 10 -37 6 -74 6 -100 0 -51 -11 -88 -3 -84 18
3 17 95 52 118 45 8 -3 40 -10 70 -17z m-947 -177 c46 -13 51 -34 5 -25 -18 4
-48 10 -65 13 -18 3 -33 10 -33 14 0 12 47 11 93 -2z m957 2 c0 -4 -15 -11
-32 -14 -18 -3 -48 -9 -65 -13 -22 -4 -33 -3 -33 4 0 6 15 16 33 21 42 12 97
13 97 2z m-580 -36 c0 -27 30 -75 46 -75 9 0 13 -5 9 -12 -4 -7 5 0 20 16 14
15 29 41 32 57 9 48 26 28 45 -52 20 -83 27 -221 15 -290 -6 -38 -4 -49 13
-69 11 -13 20 -27 20 -31 0 -4 9 -11 21 -14 15 -5 18 -10 10 -18 -18 -18 8
-37 50 -37 48 0 54 -11 31 -57 l-19 -37 -16 30 c-9 16 -33 49 -55 73 -34 39
-43 44 -78 43 -30 -1 -35 1 -24 9 25 18 -139 3 -192 -17 -26 -10 -50 -15 -54
-12 -3 4 12 24 35 46 32 31 41 46 41 73 0 22 -3 29 -9 21 -15 -24 -4 201 14
278 10 41 19 78 22 83 8 13 23 7 23 -8z m-520 -73 c59 -40 73 -74 33 -80 -32
-5 -128 85 -112 104 15 19 16 19 79 -24z m1229 24 c16 -19 -80 -109 -112 -104
-40 6 -26 40 33 80 63 43 64 43 79 24z m-1365 -118 c53 -71 9 -80 -69 -15
l-39 34 29 16 c17 9 33 15 36 14 4 -1 23 -23 43 -49z m1496 37 c17 -9 30 -17
30 -19 0 -12 -98 -76 -117 -76 -30 0 -29 4 7 50 17 21 30 43 30 49 0 15 16 14
50 -4z m-1664 -67 c6 -18 14 -41 19 -50 12 -29 -13 -21 -46 14 -31 35 -36 53
-16 61 25 11 32 6 43 -25z m1798 26 c23 -9 20 -26 -13 -62 -33 -35 -58 -43
-46 -14 5 9 13 32 19 50 11 34 15 36 40 26z m-2011 -151 c24 -38 57 -97 72
-133 15 -36 32 -71 37 -78 18 -21 1 -26 -105 -30 -56 -2 -112 -8 -125 -14 -19
-10 -26 -7 -52 17 -25 24 -30 37 -30 77 0 54 23 130 53 172 18 26 66 55 93 56
6 0 32 -30 57 -67z m2304 41 c38 -24 75 -111 80 -184 5 -62 4 -66 -26 -94 -26
-25 -34 -28 -53 -18 -13 6 -69 12 -125 14 -106 4 -123 9 -105 30 5 7 21 40 35
74 13 34 46 94 72 133 43 67 49 72 73 66 15 -3 37 -13 49 -21z m-1136 -226
c43 -10 49 -16 92 -87 70 -115 72 -105 -30 -137 -111 -35 -165 -35 -276 0
-102 32 -99 22 -30 137 44 73 48 76 102 91 31 9 65 14 76 12 11 -3 41 -9 66
-16z m-268 -41 c-11 -12 -26 -33 -33 -46 l-13 -25 -19 38 c-23 45 -17 54 37
58 51 4 53 3 28 -25z m-102 -36 c15 -34 16 -41 3 -52 -17 -14 -451 -24 -472
-10 -8 5 -11 17 -7 33 8 31 17 34 195 48 74 6 162 14 195 18 33 4 62 6 64 5 2
-2 12 -21 22 -42z m869 19 c178 -14 187 -17 195 -48 4 -16 1 -28 -7 -33 -7 -5
-114 -7 -236 -5 -257 4 -261 5 -231 72 l18 40 63 -7 c35 -5 124 -13 198 -19z
m-1394 -62 c-6 -37 -5 -39 31 -54 30 -13 76 -15 264 -12 199 3 226 1 219 -12
-4 -8 -7 -26 -5 -40 1 -21 7 -25 38 -28 43 -4 45 3 15 35 -12 13 -17 23 -11
23 5 0 18 -9 28 -20 10 -11 26 -20 36 -20 10 0 21 -5 24 -10 3 -5 24 -10 46
-10 22 0 38 -4 35 -9 -6 -9 49 -21 101 -21 43 0 217 56 233 75 18 22 28 18 26
-9 0 -13 -4 -22 -7 -20 -12 7 -19 -27 -10 -43 7 -14 10 -13 15 5 4 11 17 22
28 24 23 3 32 40 18 68 -7 13 20 15 219 12 188 -3 234 -1 264 12 36 15 37 16
31 55 l-6 40 48 -4 c27 -2 116 -7 197 -11 123 -6 150 -10 155 -23 3 -9 14 -28
24 -43 17 -25 17 -27 1 -32 -10 -2 -56 -16 -103 -29 -81 -24 -184 -41 -403
-68 -66 -8 -158 -9 -282 -4 -160 6 -185 5 -185 -8 0 -23 18 -26 190 -33 227
-10 544 26 716 81 60 18 76 21 80 10 16 -42 -37 -67 -171 -81 -33 -3 -80 -10
-105 -15 -25 -5 -207 -13 -405 -19 -198 -6 -375 -15 -393 -20 -19 -5 -30 -4
-26 1 3 5 -27 9 -68 9 -210 -2 -857 12 -948 20 -168 13 -343 40 -367 56 -14 9
-23 25 -23 39 0 29 -3 29 49 11 96 -35 214 -57 426 -82 175 -20 467 -14 517
12 17 9 26 19 22 23 -5 4 -56 4 -114 0 -160 -11 -297 -10 -385 1 -249 33 -319
44 -400 68 -49 14 -94 28 -98 32 -5 4 2 26 13 49 l22 41 97 1 c53 1 123 4 156
8 33 4 77 7 99 7 l38 1 -6 -39z"/>
<path d="M640 270 c0 -10 48 -45 54 -39 2 2 7 14 10 27 7 20 4 22 -28 22 -20
0 -36 -4 -36 -10z"/>
<path d="M2284 264 c3 -9 6 -20 6 -25 0 -15 26 -10 43 9 24 27 21 32 -19 32
-29 0 -35 -3 -30 -16z"/>
<path d="M758 259 c-26 -14 -22 -26 10 -31 15 -3 35 -9 45 -13 23 -10 23 17
-1 38 -21 19 -30 20 -54 6z"/>
<path d="M850 257 c0 -8 9 -22 20 -32 20 -18 21 -18 35 1 20 27 14 38 -23 42
-22 2 -32 -1 -32 -11z"/>
<path d="M968 252 c-16 -10 -28 -20 -28 -23 0 -7 72 -19 78 -14 5 5 -10 55
-17 54 -3 0 -18 -8 -33 -17z"/>
<path d="M1088 263 c-45 -5 -48 -14 -11 -38 26 -17 27 -17 45 5 19 23 24 41
11 38 -5 -1 -25 -3 -45 -5z"/>
<path d="M1850 262 c0 -5 8 -20 18 -32 18 -22 19 -22 45 -5 35 23 34 35 -2 35
-16 0 -36 3 -45 6 -9 3 -16 2 -16 -4z"/>
<path d="M1977 249 c-8 -31 -3 -36 37 -31 43 5 45 14 9 33 -16 7 -31 15 -34
17 -4 1 -9 -7 -12 -19z"/>
<path d="M2077 263 c-10 -9 -8 -15 8 -37 14 -19 15 -19 35 -1 29 26 25 45 -8
45 -16 0 -32 -3 -35 -7z"/>
<path d="M2177 252 c-23 -25 -22 -46 1 -37 9 4 29 10 45 13 32 5 35 17 8 32
-27 14 -35 13 -54 -8z"/>
</g>
</svg>
